HIERARCHY
ROOT wineglass3
{
	OFFSET 0.000000 0.000000 0.000000
	CHANNELS 6 Xposition Yposition Zposition Yrotation Xrotation Zrotation
	End Site
	{
		OFFSET 0.000000 0.000000 0.000000
	}
}
MOTION
Frames: 188
Frame Time: 0.008333334
2.333610 3.749977 3.014239 -38.147250 -0.278107 2.091313 
2.332668 3.749747 3.011812 -37.414460 -0.249878 1.978975 
2.332087 3.749373 3.008971 -36.515560 -0.261414 1.860553 
2.331664 3.749556 3.005942 -35.915770 -0.301819 1.874679 
2.331408 3.749570 3.004160 -35.435390 -0.329651 1.909940 
2.330885 3.749830 3.002093 -34.920620 -0.318756 1.978694 
2.330034 3.749691 2.999263 -34.522460 -0.291687 2.003845 
2.329216 3.749602 2.996983 -34.119930 -0.332672 1.954302 
2.328671 3.749601 2.995397 -33.768280 -0.364868 2.176810 
2.328439 3.749805 2.995086 -33.341090 -0.288269 2.250900 
2.328259 3.749799 2.995057 -32.914120 -0.196289 2.113330 
2.328374 3.749701 2.995278 -32.538640 -0.208099 1.997041 
2.328775 3.749737 2.995319 -32.288150 -0.157105 1.817666 
2.329597 3.749813 2.995549 -32.080690 -0.193115 1.809723 
2.330952 3.749422 2.996369 -31.854520 -0.102020 1.834547 
2.332183 3.749506 2.997279 -31.741330 -0.172791 1.845299 
2.333003 3.749778 2.997605 -31.812160 -0.190369 1.776683 
2.333118 3.749475 2.997501 -31.971310 -0.097260 1.810560 
2.332051 3.749554 2.997575 -32.351680 -0.114441 1.870981 
2.330653 3.749660 2.997341 -32.792270 -0.111816 1.790525 
2.329249 3.749959 2.996387 -33.420070 -0.124298 2.003488 
2.327796 3.750529 2.995924 -34.128080 -0.289093 2.186973 
2.328484 3.749949 2.996465 -34.773860 -0.403900 2.304350 
2.329303 3.749691 2.997967 -35.343570 -0.366333 2.228624 
2.330374 3.749652 3.001534 -35.901150 -0.188263 2.025586 
2.331840 3.749300 3.005054 -36.364620 -0.167969 1.806714 
2.333515 3.749922 3.008312 -36.762700 -0.139282 1.629429 
2.333645 3.750022 3.011195 -37.060000 -0.068848 1.626828 
2.333477 3.750585 3.011844 -37.308410 -0.057465 1.685754 
2.333742 3.750278 3.011573 -37.540100 -0.123962 1.728753 
2.334599 3.749482 3.009397 -37.680630 -0.082336 1.823435 
2.335089 3.749258 3.006119 -37.821900 -0.202301 1.815328 
2.334864 3.749354 3.004235 -37.809840 -0.216156 1.927092 
2.333573 3.749656 3.004239 -37.801700 -0.170410 1.931986 
2.333018 3.749668 3.005093 -37.836000 -0.143555 1.918123 
2.334223 3.749376 3.005778 -37.884280 -0.207031 1.863681 
2.335815 3.749463 3.007668 -37.851870 -0.235748 1.848414 
2.335661 3.749671 3.008872 -37.802950 -0.190552 1.837089 
2.333608 3.749526 3.009295 -37.870420 -0.090027 1.918744 
2.332746 3.749867 3.008385 -37.998600 -0.177063 1.996348 
2.335305 3.749460 3.008111 -37.768490 -0.201599 1.870739 
2.335981 3.749526 3.006408 -37.789490 -0.297424 1.825098 
2.339391 3.749810 3.003208 -37.746190 -0.574219 1.837572 
2.347416 3.748860 2.995566 -37.824400 -0.970429 1.800382 
2.354346 3.750276 2.985497 -37.767000 -1.702759 1.917109 
2.356518 3.749847 2.976131 -37.538510 -1.978546 2.071255 
2.356754 3.750028 2.968841 -37.440980 -2.275574 2.303599 
2.356842 3.749723 2.961854 -37.242370 -2.488647 2.524707 
2.354780 3.749907 2.954595 -37.061800 -2.676056 2.815901 
2.351565 3.750067 2.949482 -36.747010 -2.888428 3.108827 
2.345729 3.750662 2.944553 -36.161590 -2.937805 3.332820 
2.338927 3.750995 2.938599 -35.501740 -3.010498 3.830407 
2.329856 3.751906 2.932085 -34.831600 -2.968567 4.453364 
2.320161 3.754097 2.923886 -34.159610 -3.200684 5.178197 
2.309934 3.757848 2.915719 -33.450500 -3.371918 6.276122 
2.299643 3.764178 2.907699 -32.782680 -3.505188 7.384707 
2.289008 3.772845 2.901949 -32.293760 -3.516388 8.021132 
2.280716 3.783751 2.898181 -31.663540 -3.335480 8.739973 
2.272920 3.797623 2.897707 -31.072910 -2.904694 9.280234 
2.266614 3.815720 2.900112 -30.644070 -2.297729 9.159780 
2.262702 3.838358 2.904125 -30.252660 -1.453827 9.168330 
2.259264 3.865096 2.911383 -29.663300 -0.517395 8.902617 
2.257594 3.896785 2.919935 -29.187440 0.542923 8.648539 
2.256793 3.932964 2.930375 -28.738310 1.600207 8.276625 
2.255634 3.972620 2.941932 -28.366850 2.938292 7.658746 
2.256020 4.014943 2.955152 -27.898190 4.205676 7.113726 
2.255367 4.060470 2.968833 -27.489720 5.534117 6.568615 
2.254546 4.108016 2.984204 -27.100340 7.150215 6.168591 
2.252934 4.156549 2.999668 -26.766540 8.832808 5.839965 
2.250851 4.207345 3.015294 -26.403900 10.540760 5.790005 
2.247781 4.259925 3.031392 -26.007540 12.179700 5.504068 
2.243002 4.315474 3.048069 -25.608830 13.582040 5.460001 
2.239026 4.373461 3.066123 -25.147370 15.044490 5.351273 
2.233000 4.433134 3.085281 -24.631440 16.577120 5.388937 
2.227490 4.494793 3.106228 -24.069150 18.226700 5.412016 
2.221008 4.556647 3.128313 -23.665310 20.073540 5.011792 
2.214525 4.619841 3.152740 -23.197600 21.982380 5.122574 
2.206674 4.685166 3.178103 -22.830050 23.779870 5.067995 
2.198311 4.751166 3.204684 -22.431580 25.935620 5.040415 
2.188004 4.817550 3.232284 -21.952030 27.974090 5.441134 
2.176118 4.883673 3.261131 -21.633640 30.287290 5.521800 
2.162750 4.950244 3.290423 -21.104950 32.537720 6.105058 
2.148597 5.016069 3.320131 -20.685730 34.814980 6.619503 
2.134701 5.082129 3.351697 -20.043460 37.015520 7.295324 
2.119572 5.149117 3.383979 -19.675320 39.372340 7.552974 
2.104858 5.216314 3.417801 -19.031040 41.711590 8.293189 
2.089942 5.282796 3.453361 -18.318820 44.010200 8.818068 
2.075292 5.350753 3.488795 -17.722870 46.258070 9.467265 
2.059082 5.418106 3.523771 -17.259800 48.467910 10.128210 
2.041933 5.485507 3.560329 -16.800600 50.595890 10.703450 
2.025080 5.551174 3.598645 -15.899810 52.624470 11.830680 
2.008174 5.616586 3.635459 -15.296880 54.950040 12.495670 
1.991034 5.680085 3.675168 -13.947660 56.829540 13.885050 
1.970701 5.740955 3.711676 -13.223270 59.356630 15.280490 
1.951380 5.799749 3.750987 -11.932100 61.528690 16.936190 
1.929626 5.857394 3.788926 -10.575900 63.585990 18.771980 
1.907676 5.913004 3.827743 -8.363617 65.698580 21.522610 
1.885932 5.966583 3.867483 -6.158295 67.849840 23.978510 
1.865480 6.019937 3.905739 -4.402893 69.743770 26.223550 
1.846000 6.071099 3.945241 -1.556702 71.487170 29.256870 
1.828362 6.121451 3.984822 1.707258 73.149080 32.787270 
1.809889 6.168369 4.022920 4.764955 75.093450 35.857430 
1.793822 6.214411 4.060835 8.785822 76.738590 40.071230 
1.777595 6.258074 4.097907 14.030510 78.251550 45.389060 
1.760885 6.298604 4.132176 19.498380 79.995550 50.878190 
1.747272 6.336863 4.168087 27.275880 80.874920 58.750250 
1.732529 6.372797 4.201325 36.475570 81.807580 68.084980 
1.718371 6.407159 4.233276 46.673100 82.388770 78.645350 
1.705740 6.440224 4.263693 57.850020 82.677580 89.828200 
1.693954 6.470397 4.293114 65.746850 82.859910 97.773440 
1.682413 6.500361 4.319845 75.501650 82.991910 107.449800 
1.673819 6.528622 4.346433 82.596450 82.832020 114.466600 
1.662447 6.553958 4.367613 93.508170 83.227640 125.165600 
1.657988 6.580691 4.392616 91.261950 82.792960 123.139800 
1.649167 6.601768 4.410995 102.594900 83.269970 134.398200 
1.646924 6.624492 4.431615 103.282500 82.758740 135.007100 
1.642979 6.644320 4.448819 105.884200 82.527770 137.289600 
1.639606 6.661355 4.463203 109.654400 82.765850 141.061500 
1.637230 6.677998 4.476426 111.338100 82.763370 142.471500 
1.634781 6.691961 4.485804 112.877800 82.953890 143.840600 
1.633516 6.704803 4.494574 112.274300 83.255260 143.144800 
1.633775 6.716495 4.502354 108.478300 83.432930 139.017200 
1.633842 6.724665 4.505322 107.425600 83.848720 137.651000 
1.633542 6.730915 4.506012 106.262300 84.399760 136.209500 
1.635960 6.736276 4.506182 101.681600 84.781700 131.123600 
1.640311 6.740995 4.503139 92.394170 85.479100 121.534500 
1.644878 6.744303 4.498808 83.807230 86.043640 112.397000 
1.651421 6.747219 4.491865 65.803110 86.465700 94.154080 
1.658021 6.746711 4.481986 47.588170 86.838750 75.419960 
1.666742 6.745272 4.470802 26.990860 86.350520 54.581860 
1.674278 6.739555 4.457393 13.249420 85.811190 40.615610 
1.682486 6.731306 4.441263 3.045473 85.031380 30.315990 
1.691115 6.720827 4.423379 -2.246521 83.868250 24.563770 
1.700350 6.708377 4.402444 -7.415222 82.692040 19.198290 
1.707439 6.694848 4.377421 -11.720610 81.661250 14.581490 
1.719060 6.681803 4.351548 -12.370510 79.641550 14.012390 
1.731180 6.668093 4.320438 -14.845250 77.851180 11.417940 
1.744162 6.655148 4.288283 -15.693480 75.528710 10.409930 
1.759596 6.641020 4.255755 -17.637120 73.075690 8.167062 
1.775708 6.626032 4.223339 -19.854710 70.737510 5.631489 
1.793541 6.611333 4.192892 -21.090210 68.299680 4.369197 
1.813458 6.593910 4.161170 -22.482820 65.998430 2.725616 
1.835443 6.574704 4.128737 -23.692990 63.730710 0.828865 
1.856859 6.553643 4.094478 -24.735840 61.386090 -0.407410 
1.879549 6.530536 4.057080 -24.931580 58.991660 -1.201141 
1.900307 6.504156 4.017267 -25.420040 56.442450 -2.406342 
1.919943 6.474664 3.972790 -25.195560 53.621370 -2.439758 
1.937990 6.441572 3.925552 -25.098510 50.887460 -2.758301 
1.955826 6.406870 3.876881 -24.824460 48.089040 -2.648315 
1.974809 6.371238 3.830068 -24.477750 45.001700 -2.549438 
1.993794 6.334905 3.784522 -24.732790 42.082230 -2.913635 
2.014046 6.298710 3.741978 -24.793000 39.068360 -3.030579 
2.035039 6.263158 3.701445 -25.038180 36.196060 -3.120789 
2.057614 6.226256 3.662496 -25.260100 33.473620 -3.751526 
2.080780 6.187635 3.625430 -25.583310 30.868170 -4.257538 
2.104216 6.146945 3.589355 -25.796170 28.295230 -5.011993 
2.125014 6.104043 3.555320 -25.954680 25.908710 -5.996002 
2.144479 6.058104 3.520496 -25.914550 23.673870 -6.765533 
2.161571 6.010258 3.487388 -25.543210 21.419630 -7.144012 
2.175613 5.960824 3.454144 -25.233920 19.285170 -7.551971 
2.188497 5.911196 3.423860 -24.837490 17.068730 -7.992676 
2.201421 5.864345 3.394478 -24.544680 14.868670 -8.119995 
2.213978 5.819232 3.368019 -24.347110 12.941880 -8.367096 
2.227718 5.777157 3.344104 -24.206240 11.035630 -8.663055 
2.241001 5.736296 3.322855 -24.077510 9.368474 -9.042694 
2.254351 5.696135 3.303590 -23.995360 7.839543 -9.640564 
2.266488 5.656446 3.286092 -23.817230 6.241503 -9.864838 
2.278350 5.616645 3.268648 -23.754790 4.833018 -10.601590 
2.288163 5.577209 3.251761 -23.545100 3.435405 -10.960080 
2.296769 5.539287 3.235816 -23.121280 2.100832 -11.319920 
2.304507 5.502753 3.220319 -22.678800 0.785209 -11.699770 
2.313660 5.470132 3.206427 -22.235570 -0.435852 -11.977230 
2.323331 5.441062 3.194839 -21.959230 -1.769928 -12.706510 
2.334339 5.416181 3.185004 -21.792570 -2.731476 -13.323880 
2.346043 5.393928 3.177659 -21.797610 -3.455414 -13.955540 
2.357980 5.374556 3.172190 -21.914950 -3.869812 -14.775020 
2.368527 5.356974 3.168641 -22.026340 -4.219452 -15.355290 
2.376997 5.341563 3.164969 -22.316680 -4.333527 -15.859440 
2.382263 5.328304 3.161295 -22.579470 -4.239929 -15.913790 
2.386101 5.318762 3.157576 -22.713500 -4.193665 -15.746890 
2.388688 5.312706 3.152815 -22.693180 -4.186371 -15.296750 
2.390055 5.309510 3.149015 -22.844300 -3.840912 -14.747560 
2.392378 5.310224 3.146565 -22.905700 -3.583191 -14.212460 
2.395386 5.314629 3.145491 -23.090580 -3.086517 -13.847720 
2.399104 5.324062 3.146573 -23.298830 -2.443787 -13.564030 
2.401758 5.338562 3.150674 -23.668090 -1.440765 -13.372620 
2.403841 5.356311 3.158040 -24.013550 -0.233795 -13.019960 
2.403748 5.377858 3.167612 -24.307950 1.270321 -12.808380 
